<?xml version="1.0" encoding="utf-8"?>
<!-- Generator: Adobe Illustrator 27.1.0, SVG Export Plug-In . SVG Version: 6.00 Build 0)  -->
<svg version="1.1" id="Capa_1" xmlns="http://www.w3.org/2000/svg" xmlns:xlink="http://www.w3.org/1999/xlink" x="0px" y="0px"
	 viewBox="0 0 809.5 170.3" style="enable-background:new 0 0 809.5 170.3;" xml:space="preserve">
<style type="text/css">
	.st0{fill:#111111;}
</style>
<g>
	<path class="st0" d="M129.4,169.4H90.1l-44.8-66.9c-1.7-2.4-2.7-5.3-2.7-8c0-7,5.1-13.1,11.6-14.3c20.6-4.1,31-18.4,31-30.8
		c0-11.4-7-21.1-20.6-21.1H32.5v141H0V0h67.1c63.7,0.2,67.6,83.8,13.8,97.2L129.4,169.4z"/>
	<path class="st0" d="M256.8,161.1c0,5.1-4.1,9.2-9.2,9.2c-2.7,0-5.3-1.5-7-3.6l-12.4-15.5c-9.9,12.6-25,19.1-40.2,19.1
		c-27.4,0-55.5-20.6-55.5-62.5c0-34.4,27.9-62,62.3-62c34.2,0,62,27.6,62,62.3V161.1z M225.8,107.8c0-18.7-14.1-33.9-31-33.9
		c-17.2,0-31.3,15.3-31.3,33.9c0,18.7,14.1,33.9,31.3,33.9c17,0,30.8-15,31-33.7V107.8z"/>
	<path class="st0" d="M364.2,122.9h32.5c-6.5,27.1-31.3,47.5-60.3,47.5c-34.4,0-62.3-27.9-62.3-62.3c0-34.4,27.9-62,62.3-62
		c29.1,0,53.8,20.1,60.3,47.5h-32.5c-4.8-11.4-15.5-19.4-27.9-19.4c-17.2,0-31.3,15.3-31.3,33.9s14.1,33.9,31.3,33.9
		C348.7,142,359.3,134.2,364.2,122.9z"/>
	<path class="st0" d="M534.5,108.1c0,34.4-27.9,62.3-62,62.3c-34.4,0-62.3-27.9-62.3-62.3c0-34.4,27.9-62,62.3-62
		C506.7,46,534.5,73.7,534.5,108.1z M503.5,108.1c0-18.7-14.1-33.9-31-33.9c-17.2,0-31.3,15.3-31.3,33.9s14.1,33.9,31.3,33.9
		C489.5,142,503.5,126.7,503.5,108.1z"/>
	<path class="st0" d="M638.7,122.9h32.5c-6.5,27.1-31.3,47.5-60.3,47.5c-34.4,0-62.3-27.9-62.3-62.3c0-34.4,27.9-62,62.3-62
		c29.1,0,53.8,20.1,60.3,47.5h-32.5c-4.8-11.4-15.5-19.4-27.9-19.4c-17.2,0-31.3,15.3-31.3,33.9s14.1,33.9,31.3,33.9
		C623.2,142,633.9,134.2,638.7,122.9z"/>
	<path class="st0" d="M809.5,161.1c0,5.1-4.1,9.2-9.2,9.2c-2.7,0-5.3-1.5-7-3.6L781,151.2c-9.9,12.6-25,19.1-40.2,19.1
		c-27.4,0-55.5-20.6-55.5-62.5c0-34.4,27.9-62,62.3-62c34.2,0,62,27.6,62,62.3V161.1z M778.5,107.8c0-18.7-14.1-33.9-31-33.9
		c-17.2,0-31.3,15.3-31.3,33.9c0,18.7,14.1,33.9,31.3,33.9c17,0,30.8-15,31-33.7V107.8z"/>
</g>
</svg>
